<svg id="bd57ffd1-cfa8-490d-9fa0-b7fff250c70a" data-name="Layer 1" xmlns="http://www.w3.org/2000/svg" xmlns:xlink="http://www.w3.org/1999/xlink" width="865.76" height="682.89" viewBox="0 0 865.76 682.89"><defs><clipPath id="a17ecc16-7dfe-47bf-a565-df15c867897f"><path id="fb0c2538-ea27-4d38-8a4c-fde2f47c5f4b" data-name="SVGID" d="M568,73.8V619.07c0,15.42-11.54,27.88-25.77,27.88H287.7c-14.26,0-25.81-12.46-25.81-27.88V73.8c0-31.39,11.55-32.92,25.81-32.92h51c3,0,5.38,3.36,5.38,7.53v1.8C344.07,60,349.42,60,356,60H473.86c6.63,0,11.95,0,11.95-9.81v-1.8c0-4.17,2.39-7.53,5.4-7.53h51C556.41,40.88,568,45.05,568,73.8Z" fill="none"/></clipPath></defs><path d="M557.15,22.3H272.7a29.05,29.05,0,0,0-28.78,29.31h0V637.14a29.05,29.05,0,0,0,28.78,29.31H557.15A29.09,29.09,0,0,0,586,637.14V51.61A29.08,29.08,0,0,0,557.15,22.3ZM568,619.07c0,15.42-11.54,27.88-25.77,27.88H287.7c-14.26,0-25.81-12.46-25.81-27.88V73.8c0-31.39,11.55-32.92,25.81-32.92h51c3,0,5.38,3.36,5.38,7.53v1.8C344.07,60,349.42,60,356,60H473.86c6.63,0,11.95,0,11.95-9.81v-1.8c0-4.17,2.39-7.53,5.4-7.53h51c14.23,0,25.77,4.17,25.77,32.92Z" fill="#333333"/><g clip-path="url(#a17ecc16-7dfe-47bf-a565-df15c867897f)"><rect x="200.32" y="14.11" width="429.2" height="636.33" fill="#d1d3d4"/><rect x="200.32" y="313.27" width="429.2" height="55.94" opacity="0.2"/><rect x="200.32" y="369.52" width="429.2" height="55.94" opacity="0.3"/><rect x="200.32" y="425.76" width="429.2" height="55.94" opacity="0.4"/><rect x="200.32" y="482.01" width="429.2" height="55.94" opacity="0.5"/><rect x="200.32" y="538.25" width="429.2" height="55.94" opacity="0.6"/><rect x="200.32" y="594.49" width="429.2" height="55.94" opacity="0.7"/><rect x="200.32" y="86.95" width="429.2" height="226.32" fill="#fff" opacity="0.2"/><path d="M526.76,186.93a33.67,33.67,0,1,1-33.67-33.67A33.67,33.67,0,0,1,526.76,186.93Z" fill="#fff"/><line x1="493.09" y1="128.34" x2="493.09" y2="140.39" fill="none" stroke="#fff" stroke-linecap="round" stroke-linejoin="round" stroke-width="7"/><line x1="493.09" y1="233.46" x2="493.09" y2="245.51" fill="none" stroke="#fff" stroke-linecap="round" stroke-linejoin="round" stroke-width="7"/><line x1="464.92" y1="138.14" x2="470.72" y2="148.18" fill="none" stroke="#fff" stroke-linecap="round" stroke-linejoin="round" stroke-width="7"/><line x1="515.46" y1="225.67" x2="521.25" y2="235.71" fill="none" stroke="#fff" stroke-linecap="round" stroke-linejoin="round" stroke-width="7"/><line x1="436.76" y1="186.93" x2="448.34" y2="186.93" fill="none" stroke="#fff" stroke-linecap="round" stroke-linejoin="round" stroke-width="7"/><line x1="537.83" y1="186.93" x2="549.42" y2="186.93" fill="none" stroke="#fff" stroke-linecap="round" stroke-linejoin="round" stroke-width="7"/><line x1="464.92" y1="235.71" x2="470.72" y2="225.67" fill="none" stroke="#fff" stroke-linecap="round" stroke-linejoin="round" stroke-width="7"/><line x1="515.46" y1="148.18" x2="521.25" y2="138.14" fill="none" stroke="#fff" stroke-linecap="round" stroke-linejoin="round" stroke-width="7"/><line x1="442.35" y1="157.63" x2="452.79" y2="163.66" fill="none" stroke="#fff" stroke-linecap="round" stroke-linejoin="round" stroke-width="7"/><line x1="533.39" y1="210.2" x2="543.83" y2="216.22" fill="none" stroke="#fff" stroke-linecap="round" stroke-linejoin="round" stroke-width="7"/><line x1="442.35" y1="216.22" x2="452.79" y2="210.19" fill="none" stroke="#fff" stroke-linecap="round" stroke-linejoin="round" stroke-width="7"/><line x1="533.39" y1="163.66" x2="543.83" y2="157.63" fill="none" stroke="#fff" stroke-linecap="round" stroke-linejoin="round" stroke-width="7"/><line x1="464.23" y1="323.08" x2="464.23" y2="326.17" fill="none" stroke="#fff" stroke-linecap="round" stroke-linejoin="round" stroke-width="2"/><line x1="457.01" y1="325.59" x2="458.49" y2="328.17" fill="none" stroke="#fff" stroke-linecap="round" stroke-linejoin="round" stroke-width="2"/><line x1="449.78" y1="338.11" x2="452.75" y2="338.11" fill="none" stroke="#fff" stroke-linecap="round" stroke-linejoin="round" stroke-width="2"/><line x1="469.97" y1="328.17" x2="471.46" y2="325.59" fill="none" stroke="#fff" stroke-linecap="round" stroke-linejoin="round" stroke-width="2"/><line x1="451.21" y1="330.59" x2="453.89" y2="332.14" fill="none" stroke="#fff" stroke-linecap="round" stroke-linejoin="round" stroke-width="2"/><line x1="451.21" y1="345.63" x2="453.89" y2="344.08" fill="none" stroke="#fff" stroke-linecap="round" stroke-linejoin="round" stroke-width="2"/><path d="M463.51,338.77a5.65,5.65,0,0,1,.93.07,10.21,10.21,0,0,1,5.12-7.52,8.53,8.53,0,0,0-5.33-1.85A8.63,8.63,0,0,0,457.9,344,5.62,5.62,0,0,1,463.51,338.77Z" fill="#fff"/><path d="M485.51,340.43c-.25,0-.49,0-.73,0v-.24a10.22,10.22,0,0,0-20.34-1.39,5.67,5.67,0,0,0-6.56,5.56c0,.16,0,.33,0,.49a7.3,7.3,0,1,0-1.06,14.52h28.67a9.49,9.49,0,0,0,0-19Z" fill="none" stroke="#fff" stroke-linecap="round" stroke-linejoin="round" stroke-width="2"/><path d="M485.51,393.21c-.25,0-.49,0-.73,0V393a10.22,10.22,0,0,0-20.34-1.39,5.67,5.67,0,0,0-6.56,5.55c0,.17,0,.34,0,.5a7.3,7.3,0,1,0-1.06,14.52h28.67a9.49,9.49,0,0,0,0-19Z" fill="none" stroke="#fff" stroke-linecap="round" stroke-linejoin="round" stroke-width="2"/><path d="M491.8,562c-.25,0-.5,0-.74,0,0-.08,0-.16,0-.24a10.22,10.22,0,0,0-20.34-1.38,5.84,5.84,0,0,0-.93-.08,5.63,5.63,0,0,0-5.63,5.63c0,.17,0,.33,0,.49a7.45,7.45,0,0,0-1.06-.07,7.3,7.3,0,1,0,0,14.59H491.8a9.49,9.49,0,0,0,0-19Z" fill="none" stroke="#fff" stroke-linecap="round" stroke-linejoin="round" stroke-width="2"/><path d="M470.51,560.46a7.9,7.9,0,0,0-15.73-1.07,4.28,4.28,0,0,0-.72-.06,4.35,4.35,0,0,0-4.35,4.35c0,.13,0,.26,0,.38a7.36,7.36,0,0,0-.82-.06,5.65,5.65,0,0,0,0,11.29h6.93" fill="none" stroke="#fff" stroke-linecap="round" stroke-linejoin="round" stroke-width="2"/><path d="M294.83,49.49a10.27,10.27,0,0,0-10.27,10.27c0,5.67,10.27,21.45,10.27,21.45S305.1,65.43,305.1,59.76A10.27,10.27,0,0,0,294.83,49.49Zm0,14.56a4.81,4.81,0,1,1,4.81-4.81A4.81,4.81,0,0,1,294.83,64.05Z" fill="#fff"/><path d="M485.51,443.76c-.25,0-.49,0-.73,0v-.24a10.22,10.22,0,0,0-20.34-1.38,5.62,5.62,0,0,0-6.56,5.55c0,.17,0,.33,0,.49a7.3,7.3,0,1,0-1.06,14.52h28.67a9.49,9.49,0,1,0,0-19Z" fill="none" stroke="#fff" stroke-linecap="round" stroke-linejoin="round" stroke-width="2"/><line x1="460.79" y1="467.16" x2="456.94" y2="474.13" fill="none" stroke="#fff" stroke-linecap="round" stroke-linejoin="round" stroke-width="2"/><line x1="472.04" y1="467.16" x2="468.18" y2="474.13" fill="none" stroke="#fff" stroke-linecap="round" stroke-linejoin="round" stroke-width="2"/><line x1="483.28" y1="467.16" x2="479.42" y2="474.13" fill="none" stroke="#fff" stroke-linecap="round" stroke-linejoin="round" stroke-width="2"/><path d="M482.14,518.49h3.37a9.49,9.49,0,1,0,0-19c-.25,0-.49,0-.73,0v-.24a10.22,10.22,0,0,0-20.34-1.38,5.62,5.62,0,0,0-6.56,5.55c0,.17,0,.33,0,.5a6.15,6.15,0,0,0-1.06-.08,7.3,7.3,0,1,0,0,14.59h4.58" fill="none" stroke="#fff" stroke-linecap="round" stroke-linejoin="round" stroke-width="2"/><polygon points="467.91 509.49 463.76 521.69 469.21 521.69 466.98 530.86 478.51 518.01 472.73 518.01 478.51 509.49 467.91 509.49" fill="#fff"/><path d="M482.14,630.86h3.37a9.49,9.49,0,1,0,0-19c-.25,0-.49,0-.73,0v-.24a10.22,10.22,0,0,0-20.34-1.38,5.62,5.62,0,0,0-6.56,5.55c0,.17,0,.33,0,.5a6.15,6.15,0,0,0-1.06-.08,7.3,7.3,0,1,0,0,14.59h4.58" fill="none" stroke="#fff" stroke-linecap="round" stroke-linejoin="round" stroke-width="2"/><path d="M473.17,625c-1.57-2.7,2.37-5.87,6-3s.22,8.86-3.54,8.86H466" fill="none" stroke="#fff" stroke-linecap="round" stroke-linejoin="round" stroke-width="2"/><path d="M458.36,634.88h13.06c1.89,0,6.53.35,6.53,4.13s-4.64,6.53-6.88,2.4" fill="none" stroke="#fff" stroke-linecap="round" stroke-linejoin="round" stroke-width="2"/><path d="M480.11,634.3h5.13c1.35,0,4.33.2,5.07,2.43a2.84,2.84,0,0,1-1.89,3.85c-1.19.34-3.51.07-3.78-1.76" fill="none" stroke="#fff" stroke-linecap="round" stroke-linejoin="round" stroke-width="2"/></g><path d="M431,47.82H398.85a2,2,0,0,1-2-2h0a2,2,0,0,1,2-2H431a2,2,0,0,1,2,1.95v0h0A2,2,0,0,1,431,47.82Z" fill="#fff"/><rect x="94.01" y="141.05" width="287.58" height="92.2" rx="9.83" fill="#fff" stroke="#3f3d56" stroke-miterlimit="10" stroke-width="3"/><path d="M360.88,160a.4.4,0,0,1-.26-.1.38.38,0,0,1,0-.51l7.09-6.79a.38.38,0,0,1,.51,0,.37.37,0,0,1,0,.5l-7.09,6.79A.34.34,0,0,1,360.88,160Z" fill="#d1d3d4"/><path d="M367.93,160a.37.37,0,0,1-.24-.1l-7-6.85a.34.34,0,0,1,0-.48h0a.34.34,0,0,1,.49,0l7.09,6.86a.35.35,0,0,1-.33.58Z" fill="#d1d3d4"/><path d="M156,205.06,153.15,201a14.59,14.59,0,0,1-2.68-8.44v-9.21a15,15,0,0,0-12.75-14.83v-4.4a2,2,0,0,0-2-2h0a2,2,0,0,0-2,2h0v4.25a15,15,0,0,0-13.27,14.93v9.53a14.59,14.59,0,0,1-3.13,9L114.8,205Z" fill="#d1d3d4"/><path d="M133.21,211.75a6.49,6.49,0,0,0,6.74-1.16,6.3,6.3,0,0,0,1.7-2.61l-12-.09A6.52,6.52,0,0,0,133.21,211.75Z" fill="#d1d3d4"/><line x1="173.88" y1="171.26" x2="317.84" y2="171.26" fill="none" stroke="#d1d3d4" stroke-miterlimit="10"/><line x1="173.88" y1="189.25" x2="350.6" y2="189.25" fill="none" stroke="#d1d3d4" stroke-miterlimit="10"/><line x1="173.88" y1="200.11" x2="350.6" y2="200.11" fill="none" stroke="#d1d3d4" stroke-miterlimit="10"/><path d="M760,303.72l6.81,31s-8.93,10.75-17,6.72-11.07-26.48-11.07-26.48Z" fill="#f9b499"/><path d="M739.22,235.29a26.37,26.37,0,0,1,8.63,15.26c1.43,9.56,23.07,73.41,23.07,73.41a48.57,48.57,0,0,0-23.53,2c-11.48,4.32-23.32-7.09-23.32-7.09l-.59-75.41" fill="#0071f2"/><path d="M602.43,316.59h.11c6.25-22.34,19-59.91,21.36-68,3.34-11,9.08-13.87,9.08-13.87l8.6,53.56-3.34,7.17S629,321.33,621.9,334.1l19.29,40.77,6.7,14.35-8.61,12.43s-39.21-60.73-41.2-65S602.43,316.59,602.43,316.59Z" fill="#f9b499"/><path d="M635.45,233.85A19.83,19.83,0,0,0,624,242.93c-4.79,7.63-28.22,84.66-28.22,84.66a39.05,39.05,0,0,0,16.79,7.17,50.39,50.39,0,0,0,14.81.49l13.87-36.35" fill="#0071f2"/><path d="M746.47,636.68s0,2,12.21,12.21S773.25,662,769.85,665.4s-19.91-2.92-25.27-6.32-2.91-3.4-9.23-6.32-3.4-13.1-2.43-15.55S746.47,636.68,746.47,636.68Z" fill="#0071f2"/><path d="M629,634.48s0,1.94-12.21,12.21-14.58,13.12-11.18,16.53,19.93-2.92,25.27-6.32,2.93-3.4,9.24-6.32,3.39-13.12,2.43-15.55S629,634.48,629,634.48Z" fill="#0071f2"/><path d="M636.41,452.6c-1.52-16.36,1.91-48.44,1.91-52.32s7.34-19.7,9.46-24.12L648,371s75.59-2.85,85.57-6.41c0,0,11.68,41,13.1,79.53s7.85,85.58,6.42,112.68c-1.15,21.7-2.15,65-3.05,79.48a7.63,7.63,0,0,1-6,7l-1.76.42a7.73,7.73,0,0,1-9.24-5.83c0-.25-.1-.5-.13-.75-3.51-28.2-16.46-122.86-21.86-140.24-6.41-20.69-19.61-76.68-19.61-76.68s-30.32,138-33.87,156.56-15,60.62-15,60.62a34.77,34.77,0,0,1-9.28,2.13,29.08,29.08,0,0,1-7.79-1.41Z" fill="#333333"/><path d="M689.66,220.76s18.45,3.68,30.9,7.37,20.72,6,20.72,10.15-5.52,128.17-5.52,128.17-.46,5.08-11.53,6.46-69.61,3.23-73.25,2.31-5.06-4.57-5.52-10.14S630.71,242,631.62,236.45s46.11-13.84,47.49-14.3A19.75,19.75,0,0,1,689.66,220.76Z" fill="#0071f2"/><ellipse cx="684.87" cy="238.45" rx="20.19" ry="16.83" fill="#fff" opacity="0.2"/><path d="M702.76,189s4.27-10.68,6.39-2.12-5.33,19.18-9.58,16" fill="#f9b499"/><path d="M659.07,191.77s-9.05-5.86-8.51,2.14,8.51,17,11.18,12.2" fill="#f9b499"/><path d="M699.57,202.89l-.54,33a14,14,0,0,1-14.74,13.33h-.18c-14.37,0-13.84-16.53-13.84-16.53l-3.2-26.62S690,208.75,699.57,202.89Z" fill="#f9b499"/><path d="M684.9,230.51c4.43-.81,10-6,14.33-10.82l.2-12.57-8.85-5.34a80.31,80.31,0,0,1-15.18.81l-7.36,7,1.41,11.69C673.29,225.74,679.55,231.44,684.9,230.51Z" fill="#f4a68e"/><path d="M655.24,184.14s-6.39-19.71,10.68-31.43,35.1,3.19,37.29,18.11.54,34.62-7.46,45.78-13,12-21.83,5.32S655.84,196.88,655.24,184.14Z" fill="#f9b499"/><path d="M659.39,176.22s2.05,6.64,1.53,9.16,2.55,9.69-2,9.15-6.63-18.31-6.63-18.31Z" fill="#333333"/><path d="M703.26,186.43s-4.07,3.57-4.07-.52,3-6.1.5-9.15-7.63-5.12-7.63-10.21v-8.67s-10.68,10.68-19.84,15.81-18.31,8.16-25.49,5.61,2.54-11.73,2.54-11.73-10.68,5.62-10.68-4.09,17.86-22.43,34.18-22.43,21.93,10.68,21.93,10.68,9.69,0,11.23,8.67S703.26,186.43,703.26,186.43Z" fill="#333333"/><polygon points="680.51 256.08 686.84 300.01 707.72 297.86 703.29 252.48 680.51 256.08" fill="#333333"/><path d="M715.48,283.7l-3.2-7.21-7.2-4.79.79,4.79,2.81,6.4-12.41-2-10.82-.4s-1.2,2.39,0,2.81,9.16,3.6,9.16,3.6L683,288.1s-1.61,3.2,0,4,4.39,8,8.8,9.16,20.49-2.35,20.49-2.35,25.64,46.05,30.84,49.65,14.82,1.6,17.21.39,6.85-7.53,6.41-14.81c-.2-3.19-48.45-44-48.45-44Z" fill="#f9b499"/></svg>